<svg xmlns="http://www.w3.org/2000/svg" xmlns:xlink="http://www.w3.org/1999/xlink" width="472" zoomAndPan="magnify" viewBox="391.1132507324219 610.8397827148438 691.4062805175781 243.16400146484375" height="166" preserveAspectRatio="xMidYMid meet" version="1.0" style=""><defs><filter x="0%" y="0%" width="100%" height="100%" id="1b1736e81e"><feColorMatrix values="0 0 0 0 1 0 0 0 0 1 0 0 0 0 1 0 0 0 1 0" color-interpolation-filters="sRGB"/></filter><g/><clipPath id="34f704288a"><path d="M 387.160156 0 L 1500 0 L 1500 1500 L 387.160156 1500 Z M 387.160156 0 " clip-rule="nonzero"/></clipPath><linearGradient x1="244.392" gradientTransform="matrix(0.749874, 0, 0, 0.749932, 203.896115, 533.806158)" y1="288.5" x2="1728.429851" gradientUnits="userSpaceOnUse" y2="288.5" id="5ea5e5103e"><stop stop-opacity="1" stop-color="rgb(54.899597%, 32.159424%, 100%)" offset="0"/><stop stop-opacity="1" stop-color="rgb(54.899597%, 32.159424%, 100%)" offset="0.5"/><stop stop-opacity="1" stop-color="rgb(54.899597%, 32.159424%, 100%)" offset="0.53125"/><stop stop-opacity="1" stop-color="rgb(54.899597%, 32.159424%, 100%)" offset="0.546875"/><stop stop-opacity="1" stop-color="rgb(54.899597%, 32.159424%, 100%)" offset="0.554688"/><stop stop-opacity="1" stop-color="rgb(57.275391%, 33.460999%, 96.321106%)" offset="0.558594"/><stop stop-opacity="1" stop-color="rgb(59.651184%, 34.762573%, 92.643738%)" offset="0.5625"/><stop stop-opacity="1" stop-color="rgb(62.652588%, 36.405945%, 87.998962%)" offset="0.566406"/><stop stop-opacity="1" stop-color="rgb(65.653992%, 38.049316%, 83.354187%)" offset="0.570313"/><stop stop-opacity="1" stop-color="rgb(68.655396%, 39.692688%, 78.707886%)" offset="0.574219"/><stop stop-opacity="1" stop-color="rgb(71.656799%, 41.337585%, 74.06311%)" offset="0.578125"/><stop stop-opacity="1" stop-color="rgb(74.658203%, 42.980957%, 69.418335%)" offset="0.582031"/><stop stop-opacity="1" stop-color="rgb(77.659607%, 44.624329%, 64.77356%)" offset="0.585938"/><stop stop-opacity="1" stop-color="rgb(80.661011%, 46.2677%, 60.128784%)" offset="0.589844"/><stop stop-opacity="1" stop-color="rgb(83.662415%, 47.912598%, 55.484009%)" offset="0.59375"/><stop stop-opacity="1" stop-color="rgb(86.663818%, 49.555969%, 50.837708%)" offset="0.597656"/><stop stop-opacity="1" stop-color="rgb(89.665222%, 51.199341%, 46.192932%)" offset="0.601562"/><stop stop-opacity="1" stop-color="rgb(92.666626%, 52.842712%, 41.548157%)" offset="0.605469"/><stop stop-opacity="1" stop-color="rgb(95.66803%, 54.48761%, 36.903381%)" offset="0.609375"/><stop stop-opacity="1" stop-color="rgb(97.833252%, 55.673218%, 33.551025%)" offset="0.613281"/><stop stop-opacity="1" stop-color="rgb(100%, 56.858826%, 30.198669%)" offset="0.617188"/><stop stop-opacity="1" stop-color="rgb(100%, 56.858826%, 30.198669%)" offset="0.625"/><stop stop-opacity="1" stop-color="rgb(100%, 56.858826%, 30.198669%)" offset="0.75"/><stop stop-opacity="1" stop-color="rgb(100%, 56.858826%, 30.198669%)" offset="1"/></linearGradient><clipPath id="91b5b5153a"><rect x="0" width="1500" y="0" height="1500"/></clipPath><clipPath id="eb113477a7"><rect x="0" width="1500" y="0" height="1500"/></clipPath><clipPath id="35e7a13074"><rect x="0" width="1500" y="0" height="1500"/></clipPath><mask id="11c8fdec8d"><g filter="url(#1b1736e81e)"><g transform="matrix(1, 0, 0, 1, 0, 0.000000000000112861)"><g clip-path="url(#35e7a13074)"><g transform="matrix(1, 0, 0, 1, 0, 0.000000000000112861)"><g clip-path="url(#eb113477a7)"><g fill="#000000" fill-opacity="1"><g transform="translate(1006.647416, 843.161739)"><g><path d="M 26.3125 1.859375 C 18.675781 1.859375 12.378906 -0.875 7.421875 -6.34375 C 2.472656 -11.8125 0 -17.953125 0 -24.765625 C 0 -32.191406 2.472656 -38.429688 7.421875 -43.484375 C 12.378906 -48.546875 18.675781 -51.078125 26.3125 -51.078125 C 33.539062 -51.078125 39.785156 -48.648438 45.046875 -43.796875 C 50.304688 -38.953125 52.9375 -32.609375 52.9375 -24.765625 C 52.9375 -17.335938 50.351562 -11.039062 45.1875 -5.875 C 40.03125 -0.71875 33.738281 1.859375 26.3125 1.859375 Z M 26.3125 1.859375 "/></g></g></g></g></g></g></g></g></mask><clipPath id="42c55b3842"><path d="M 387.160156 0 L 1500 0 L 1500 1500 L 387.160156 1500 Z M 387.160156 0 " clip-rule="nonzero"/></clipPath><clipPath id="690f96ea85"><rect x="0" width="1500" y="0" height="1500"/></clipPath><clipPath id="d8935b590e"><rect x="0" width="1500" y="0" height="1500"/></clipPath></defs><g fill="#171716" fill-opacity="1"><g transform="translate(428.010744, 843.161739)"><g><path d="M 11.140625 0 C 8.253906 0 5.78125 -1.1875 3.71875 -3.5625 C 1.65625 -5.9375 0.625 -8.773438 0.625 -12.078125 L 0 -207.734375 C 0 -210.628906 1.082031 -213.363281 3.25 -215.9375 C 5.414062 -218.519531 7.84375 -219.8125 10.53125 -219.8125 L 89.46875 -219.5 C 104.738281 -219.5 118.359375 -218.003906 130.328125 -215.015625 C 142.304688 -212.023438 152.367188 -206.863281 160.515625 -199.53125 C 168.671875 -192.207031 174.398438 -182.039062 177.703125 -169.03125 C 179.148438 -164.082031 180.128906 -157.738281 180.640625 -150 C 181.160156 -142.257812 181.109375 -134.15625 180.484375 -125.6875 C 179.867188 -117.226562 178.476562 -109.234375 176.3125 -101.703125 C 174.144531 -94.171875 171.101562 -88.03125 167.1875 -83.28125 C 160.164062 -74.613281 151.800781 -68.0625 142.09375 -63.625 C 132.394531 -59.1875 121.765625 -56.191406 110.203125 -54.640625 C 98.648438 -53.097656 86.476562 -52.117188 73.6875 -51.703125 L 74.609375 -12.6875 C 75.023438 -9.1875 73.992188 -6.25 71.515625 -3.875 C 69.035156 -1.5 66.457031 -0.3125 63.78125 -0.3125 Z M 71.515625 -148.609375 L 72.4375 -114.546875 L 88.234375 -114.546875 C 95.453125 -114.546875 101.019531 -116.25 104.9375 -119.65625 C 108.863281 -123.0625 110.929688 -127.035156 111.140625 -131.578125 C 111.347656 -136.117188 109.285156 -140.144531 104.953125 -143.65625 C 102.890625 -145.300781 98.757812 -146.484375 92.5625 -147.203125 C 86.375 -147.929688 79.359375 -148.398438 71.515625 -148.609375 Z M 71.515625 -148.609375 "/></g></g></g><g fill="#171716" fill-opacity="1"><g transform="translate(621.50574, 843.161739)"><g><path d="M 68.109375 0 L 11.765625 0 C 8.671875 0 5.9375 -1.238281 3.5625 -3.71875 C 1.1875 -6.195312 0 -8.984375 0 -12.078125 L 0.625 -204.953125 C 0.625 -208.460938 1.757812 -211.351562 4.03125 -213.625 C 6.300781 -215.894531 9.085938 -217.03125 12.390625 -217.03125 L 71.828125 -216.71875 C 74.921875 -216.71875 77.753906 -215.53125 80.328125 -213.15625 C 82.910156 -210.78125 84.101562 -207.835938 83.90625 -204.328125 L 80.1875 -12.078125 C 80.1875 -8.773438 79 -5.9375 76.625 -3.5625 C 74.25 -1.1875 71.410156 0 68.109375 0 Z M 68.109375 0 "/></g></g></g><g fill="#171716" fill-opacity="1"><g transform="translate(717.788812, 843.161739)"><g><path d="M 113 1.859375 C 110.519531 1.859375 108.25 1.132812 106.1875 -0.3125 C 104.332031 -1.757812 102.992188 -3.71875 102.171875 -6.1875 L 77.703125 -66.875 L 79.25 -11.453125 C 79.457031 -7.535156 78.320312 -4.441406 75.84375 -2.171875 C 73.164062 0.304688 70.28125 1.546875 67.1875 1.546875 L 12.390625 1.859375 C 9.085938 1.859375 6.300781 0.722656 4.03125 -1.546875 C 1.757812 -3.816406 0.625 -6.910156 0.625 -10.828125 L 0 -210.21875 C 0 -213.3125 1.238281 -216.195312 3.71875 -218.875 C 5.988281 -221.351562 8.671875 -222.59375 11.765625 -222.59375 L 61.921875 -222.59375 C 65.222656 -222.59375 68.113281 -221.351562 70.59375 -218.875 C 72.863281 -216.195312 74 -213.3125 74 -210.21875 L 75.546875 -147.0625 L 104.328125 -213.3125 C 105.359375 -215.988281 106.910156 -217.945312 108.984375 -219.1875 C 110.835938 -220.21875 113.3125 -220.734375 116.40625 -220.734375 L 168.109375 -221.046875 C 172.023438 -221.046875 175.117188 -219.085938 177.390625 -215.171875 C 179.867188 -211.660156 180.285156 -207.941406 178.640625 -204.015625 L 136.84375 -108.671875 L 179.5625 -14.234375 C 180.800781 -10.109375 180.285156 -6.191406 178.015625 -2.484375 C 175.535156 0.828125 172.128906 2.484375 167.796875 2.484375 Z M 113 1.859375 "/></g></g></g><g fill="#171716" fill-opacity="1"><g transform="translate(910.355, 843.161739)"><g><path d="M 68.109375 0 L 11.765625 0 C 8.671875 0 5.9375 -1.238281 3.5625 -3.71875 C 1.1875 -6.195312 0 -8.984375 0 -12.078125 L 0.625 -204.953125 C 0.625 -208.460938 1.757812 -211.351562 4.03125 -213.625 C 6.300781 -215.894531 9.085938 -217.03125 12.390625 -217.03125 L 71.828125 -216.71875 C 74.921875 -216.71875 77.753906 -215.53125 80.328125 -213.15625 C 82.910156 -210.78125 84.101562 -207.835938 83.90625 -204.328125 L 80.1875 -12.078125 C 80.1875 -8.773438 79 -5.9375 76.625 -3.5625 C 74.25 -1.1875 71.410156 0 68.109375 0 Z M 68.109375 0 "/></g></g></g><g transform="matrix(1, 0, 0, 1, 0, 0.000000000000112861)"><g clip-path="url(#d8935b590e)"><g mask="url(#11c8fdec8d)"><g transform="matrix(1, 0, 0, 1, 0, 0.000000000000112861)"><g clip-path="url(#690f96ea85)"><g clip-path="url(#42c55b3842)"><path fill="url(#5ea5e5103e)" d="M 387.160156 0 L 387.160156 1500 L 1500 1500 L 1500 0 Z M 387.160156 0 " fill-rule="nonzero"/></g></g></g></g></g></g></svg>